#!OML:ASF F:\VICON\USERDATA\INSTALL\rory3\rory3.ASF
:FULLY-SPECIFIED
:DEGREES
2379
root -0.350737 17.7827 2.71891 138.973 -116.509 -139.216
lowerback 7.66992 2.66994 -4.45253
upperback -3.28068 3.55073 7.69514
thorax -8.66448 2.21347 10.4006
lowerneck -23.1845 -0.384378 -17.5736
upperneck -5.62754 3.22617 9.03219
head 1.39802 2.05419 5.88696
rclavicle 1.51076e-014 -6.36111e-015
rhumerus -32.509 9.42997 -69.3113
rradius 41.9169
rwrist 1.56555
rhand -21.226 6.65839
rfingers 7.12502
rthumb 5.15613 -23.2589
lclavicle 1.51076e-014 -6.36111e-015
lhumerus 81.8242 46.796 46.7823
lradius 21.2906
lwrist -6.26519
lhand -14.5502 30.4934
lfingers 7.12502
lthumb 11.5986 60.1524
rfemur -8.09451 -5.4116 4.44353
rtibia 39.3273
rfoot -27.8725 -6.88386
rtoes 11.8625
lfemur -12.3971 -9.28344 -18.3312
ltibia 24.7983
lfoot -18.1635 14.8125
ltoes -19.4176
2380
root -0.357462 17.7796 2.70831 138.687 -116.81 -138.853
lowerback 7.70225 2.6687 -4.83803
upperback -3.29632 3.50982 7.66774
thorax -8.71878 2.22026 10.6087
lowerneck -23.0048 -0.405819 -17.6916
upperneck -5.8241 3.19762 9.02207
head 1.31444 2.04292 5.89625
rclavicle -2.06736e-014 -1.04958e-013
rhumerus -32.3528 9.4462 -69.1185
rradius 42.3332
rwrist 0.646443
rhand -21.6008 6.87428
rfingers 7.12502
rthumb 4.79423 -23.0515
lclavicle -2.06736e-014 -1.04958e-013
lhumerus 82.3309 46.8335 47.3865
lradius 21.1114
lwrist -6.66166
lhand -14.4628 30.3212
lfingers 7.12502
lthumb 11.6828 59.9755
rfemur -8.28418 -5.75851 4.07356
rtibia 39.6974
rfoot -27.9549 -6.55745
rtoes 12.8604
lfemur -12.4444 -9.89242 -18.425
ltibia 24.3957
lfoot -18.0955 15.2725
ltoes -19.2999
2381
root -0.363065 17.7798 2.69926 138.453 -117.056 -138.491
lowerback 7.68411 2.6509 -5.11586
upperback -3.27714 3.45192 7.54194
thorax -8.6835 2.20339 10.64
lowerneck -23.0795 -0.332783 -17.4217
upperneck -5.83635 3.23815 8.89684
head 1.32153 2.05416 5.81604
rclavicle -6.2816e-014 -1.90833e-014
rhumerus -32.0462 9.18314 -69.0551
rradius 42.7911
rwrist 0.100733
rhand -21.5662 6.82985
rfingers 7.12502
rthumb 4.82768 -23.0951
lclavicle -6.2816e-014 -1.90833e-014
lhumerus 82.7226 46.9096 47.5436
lradius 21.0287
lwrist -6.59084
lhand -14.2495 30.6676
lfingers 7.12502
lthumb 11.8885 60.3101
rfemur -8.54249 -5.97463 3.78061
rtibia 40.0509
rfoot -27.9761 -6.48123
rtoes 13.1064
lfemur -12.5643 -9.96094 -18.489
ltibia 23.9811
lfoot -17.8802 15.3211
ltoes -19.4503
2382
root -0.366907 17.7793 2.68948 138.516 -117.125 -138.51
lowerback 7.67936 2.60321 -5.19368
upperback -3.20167 3.37679 7.52488
thorax -8.58402 2.1637 10.6781
lowerneck -23.3491 -0.32776 -17.2129
upperneck -5.71796 3.23288 8.92807
head 1.39958 2.04988 5.79867
rclavicle -4.13472e-014 -6.36111e-014
rhumerus -31.5816 8.93895 -68.896
rradius 43.3387
rwrist -0.236194
rhand -21.5287 6.68208
rfingers 7.12502
rthumb 4.86389 -23.2421
lclavicle -4.13472e-014 -6.36111e-014
lhumerus 83.2037 47.1055 47.8266
lradius 20.9487
lwrist -6.52537
lhand -13.9144 31.0997
lfingers 7.12502
lthumb 12.2116 60.7232
rfemur -8.72466 -5.94407 3.80583
rtibia 40.3501
rfoot -28.0239 -6.53341
rtoes 13.3245
lfemur -12.6783 -8.96214 -18.3286
ltibia 23.5666
lfoot -17.193 14.5693
ltoes -20.4563
2383
root -0.370231 17.7755 2.68149 138.752 -117.169 -138.729
lowerback 7.68132 2.53917 -5.22246
upperback -3.16641 3.28987 7.60395
thorax -8.53469 2.12176 10.8013
lowerneck -23.6426 -0.457233 -17.4614
upperneck -5.46823 3.16644 9.38787
head 1.51967 2.04027 5.99309
rclavicle -7.15625e-015 6.36111e-014
rhumerus -31.1367 8.7157 -68.5046
rradius 43.9577
rwrist -0.514791
rhand -21.4362 6.8601
rfingers 7.12502
rthumb 4.95319 -23.062
lclavicle -7.15625e-015 6.36111e-014
lhumerus 83.3253 47.2931 47.8734
lradius 20.8863
lwrist -6.27037
lhand -13.5147 31.3027
lfingers 7.12502
lthumb 12.597 60.9029
rfemur -8.82846 -5.95883 3.9005
rtibia 40.5674
rfoot -28.0618 -6.53153
rtoes 13.6186
lfemur -12.7942 -8.45688 -18.0763
ltibia 23.223
lfoot -16.4149 14.2574
ltoes -22.1672
2384
root -0.37035 17.7734 2.67205 139.117 -117.255 -139.095
lowerback 7.7332 2.52398 -5.21388
upperback -3.15985 3.27328 7.687
thorax -8.56039 2.11678 10.895
lowerneck -23.6855 -0.591277 -17.8288
upperneck -5.47867 3.08742 9.72652
head 1.52549 2.02288 6.15982
rclavicle -5.80451e-014 -1.30403e-013
rhumerus -30.8076 8.29973 -67.9544
rradius 44.7705
rwrist -1.10798
rhand -21.6971 6.96868
rfingers 7.12502
rthumb 4.70123 -22.9592
lclavicle -5.80451e-014 -1.30403e-013
lhumerus 83.7594 47.2858 48.4428
lradius 20.7727
lwrist -6.32637
lhand -13.4354 31.3441
lfingers 7.12502
lthumb 12.6735 60.9396
rfemur -8.88107 -5.92782 4.05468
rtibia 40.7237
rfoot -28.2179 -6.74315
rtoes 13.469
lfemur -12.9042 -8.70212 -17.7658
ltibia 22.9319
lfoot -15.5912 14.5028
ltoes -24.0312
2385
root -0.371974 17.7711 2.66444 139.453 -117.262 -139.473
lowerback 7.79368 2.56219 -5.12965
upperback -3.1399 3.336 7.76992
thorax -8.58967 2.14579 10.929
lowerneck -23.7118 -0.79036 -18.2464
upperneck -5.47315 2.93551 10.1093
head 1.54409 1.97225 6.34492
rclavicle -1.19271e-014 9.54166e-015
rhumerus -30.4114 7.59929 -67.3217
rradius 45.6215
rwrist -1.84979
rhand -22.2237 6.96835
rfingers 7.12502
rthumb 4.19273 -22.9701
lclavicle -1.19271e-014 9.54166e-015
lhumerus 83.9318 47.2323 48.8311
lradius 20.8049
lwrist -6.09368
lhand -13.5938 31.5419
lfingers 7.12502
lthumb 12.5208 61.1468
rfemur -8.88929 -5.87768 4.24002
rtibia 40.8352
rfoot -28.3268 -6.84647
rtoes 13.4243
lfemur -12.9223 -8.78265 -17.4398
ltibia 22.6272
lfoot -15.1668 14.6088
ltoes -24.9441
